HIERARCHY
ROOT Hips
{
	OFFSET -3.958830 18.904000 13.208200
	CHANNELS 6 Xposition Yposition Zposition Zrotation Yrotation Xrotation 
	JOINT LHipJoint
	{
		OFFSET 0.000000 0.000000 0.000000
		CHANNELS 3 Zrotation Yrotation Xrotation
		JOINT LeftUpLeg
		{
			OFFSET 1.800000 -1.400000 0.085000
			CHANNELS 3 Zrotation Yrotation Xrotation
			JOINT LeftLeg
			{
				OFFSET 2.215000 -6.000000 0.000000
				CHANNELS 3 Zrotation Yrotation Xrotation
				JOINT LeftFoot
				{
					OFFSET 2.500000 -6.900000 0.000000
					CHANNELS 3 Zrotation Yrotation Xrotation
					JOINT LeftToeBase
					{
						OFFSET 0.200000 -0.500000 1.950000
						CHANNELS 3 Zrotation Yrotation Xrotation
						End Site
						{
							OFFSET 0.000000 0.000000 0.000000
						}
					}
				}
			}
		}
	}
	JOINT RHipJoint
	{
		OFFSET 0.000000 0.000000 0.000000
		CHANNELS 3 Zrotation Yrotation Xrotation
		JOINT RightUpLeg
		{
			OFFSET -1.800000 -1.400000 0.085000
			CHANNELS 3 Zrotation Yrotation Xrotation
			JOINT RightLeg
			{
				OFFSET -2.215000 -6.000000 0.000000
				CHANNELS 3 Zrotation Yrotation Xrotation
				JOINT RightFoot
				{
					OFFSET -2.500000 -6.900000 0.000000
					CHANNELS 3 Zrotation Yrotation Xrotation
					JOINT RightToeBase
					{
						OFFSET -0.200000 -0.500000 1.950000
						CHANNELS 3 Zrotation Yrotation Xrotation
						End Site
						{
							OFFSET 0.000000 0.000000 0.000000
						}
					}
				}
			}
		}
	}
	JOINT LowerBack
	{
		OFFSET 0.000000 0.000000 0.000000
		CHANNELS 3 Zrotation Yrotation Xrotation
		JOINT Spine
		{
			OFFSET -0.087000 1.940000 -0.288900
			CHANNELS 3 Zrotation Yrotation Xrotation
			JOINT Spine1
			{
				OFFSET 0.000000 1.950000 0.060000
				CHANNELS 3 Zrotation Yrotation Xrotation
				JOINT Neck
				{
					OFFSET 0.000000 0.000000 0.000000
					CHANNELS 3 Zrotation Yrotation Xrotation
					JOINT Neck1
					{
						OFFSET 0.000000 1.600000 0.340000
						CHANNELS 3 Zrotation Yrotation Xrotation
						JOINT Head
						{
							OFFSET 0.000000 1.667000 -0.240000
							CHANNELS 3 Zrotation Yrotation Xrotation
							End Site
							{
								OFFSET 0.000000 0.000000 0.000000
							}
						}
					}
				}
				JOINT LeftShoulder
				{
					OFFSET 0.000000 0.000000 0.000000
					CHANNELS 3 Zrotation Yrotation Xrotation
					JOINT LeftArm
					{
						OFFSET 2.700000 1.550000 -0.730000
						CHANNELS 3 Zrotation Yrotation Xrotation
						JOINT LeftForeArm
						{
							OFFSET 5.450000 0.000000 0.000000
							CHANNELS 3 Zrotation Yrotation Xrotation
							JOINT LeftHand
							{
								OFFSET 3.450000 0.000000 0.000000
								CHANNELS 3 Zrotation Yrotation Xrotation
								JOINT LeftHandIndex1
								{
									OFFSET 0.750000 0.000000 0.000000
									CHANNELS 3 Zrotation Yrotation Xrotation
									End Site
									{
										OFFSET 0.000000 0.000000 0.000000
									}
								}
							}
						}
					}
				}
				JOINT RightShoulder
				{
					OFFSET 0.000000 0.000000 0.000000
					CHANNELS 3 Zrotation Yrotation Xrotation
					JOINT RightArm
					{
						OFFSET -2.700000 1.550000 -0.730000
						CHANNELS 3 Zrotation Yrotation Xrotation
						JOINT RightForeArm
						{
							OFFSET -5.450000 0.000000 0.000000
							CHANNELS 3 Zrotation Yrotation Xrotation
							JOINT RightHand
							{
								OFFSET -3.450000 0.000000 0.000000
								CHANNELS 3 Zrotation Yrotation Xrotation
								JOINT RightHandIndex1
								{
									OFFSET -0.750000 0.000000 0.000000
									CHANNELS 3 Zrotation Yrotation Xrotation
									End Site
									{
										OFFSET 0.000000 0.000000 0.000000
									}
								}
							}
						}
					}
				}
			}
		}
	}
}
MOTION
Frames: 6
Frame Time: 0.016667
0.403310 16.225900 -1.121630 -1.593537 35.403507 11.024500 -15.202339 12.223373 3.818774 8.068866 -3.831134 -29.814447 -8.834667 4.160319 5.481424 -0.543194 3.113131 3.576481 -0.073720 -0.506260 0.101910 18.214831 -11.248313 2.370282 -7.432181 1.043360 -12.427417 2.633706 -3.941474 10.844955 0.118217 -3.167786 3.381710 -0.199920 0.369880 0.083790 -4.133959 -0.133206 -7.379624 6.318959 3.611753 6.231226 0.426935 4.109925 -6.480966 -1.367865 -6.970098 -5.618641 -11.938804 3.014285 25.940979 -1.830940 -0.132140 -1.534190 -9.968091 15.995417 -0.017272 -61.218102 9.960733 -8.750702 -28.803818 -24.410665 3.818330 -3.827714 2.843722 0.369700 0.157230 -0.261310 0.019510 11.900498 -7.384439 0.747539 64.255526 -0.686797 -7.943823 21.079783 22.549861 2.061098 2.484049 -1.291588 -0.368050 0.120940 0.126160 -0.165960 
0.413500 16.223080 -1.110300 -1.668375 35.381706 11.035342 -15.173408 12.201080 3.817155 8.197979 -3.809618 -29.950852 -9.005317 4.269242 5.885566 -0.525498 3.130081 3.561969 -0.057480 -0.482400 0.108540 18.244200 -11.271325 2.373305 -7.399504 1.081390 -12.469420 2.646817 -3.957285 10.969596 0.107510 -3.165060 3.380709 -0.193400 0.361000 0.084750 -4.241807 -0.052584 -7.382858 7.332527 3.395607 6.187762 -1.226362 3.855951 -6.835828 -0.786081 -7.401496 -5.221159 -12.725453 4.183612 26.697758 -1.728760 0.564430 -1.446880 -10.656015 17.545064 -1.032087 -61.840429 8.916553 -8.301710 -24.180257 -24.073387 3.003572 -3.847196 2.779472 0.369470 0.147860 -0.247990 0.027620 11.183307 -8.704538 0.702959 65.288938 -0.156634 -6.933869 25.391080 24.653183 3.403243 2.479654 -1.345609 -0.355930 0.117900 0.113350 -0.160000 
0.419770 16.221190 -1.101800 -1.888886 35.261369 10.854211 -15.131550 12.163840 3.798998 8.377080 -3.752532 -30.091857 -8.991200 4.386966 6.495996 -0.517996 3.134648 3.549801 -0.032180 -0.446670 0.127040 18.283926 -11.326578 2.390313 -7.326257 1.115499 -12.496069 2.764120 -4.010074 11.135509 0.090013 -3.173695 3.377218 -0.180000 0.344820 0.082990 -4.389387 0.127518 -7.389907 8.603998 3.300562 6.154623 -3.080496 3.697426 -6.936044 -0.006251 -7.530124 -4.943110 -12.895332 5.179859 27.684517 -1.769660 1.398220 -1.558650 -11.539886 18.347535 -1.938153 -62.241730 7.680428 -7.841822 -19.795266 -23.700854 2.214515 -3.861084 2.716296 0.375060 0.137440 -0.229200 0.034760 10.248097 -9.483725 0.844854 66.767321 0.666406 -5.658281 29.478750 26.304041 4.795152 2.468723 -1.402448 -0.344950 0.118330 0.094950 -0.160240 
0.420820 16.221490 -1.094500 -2.067754 34.960727 10.571445 -15.080400 12.122220 3.770369 8.498133 -3.689413 -30.152159 -8.811779 4.490591 7.231730 -0.517238 3.119243 3.539520 0.001320 -0.401300 0.155350 18.325978 -11.422216 2.417571 -7.302977 1.143854 -12.514655 2.839570 -4.074127 11.390790 0.065069 -3.187579 3.366076 -0.161730 0.318860 0.082700 -4.557234 0.397683 -7.407171 9.845319 3.326958 6.130211 -5.238919 3.620967 -6.851314 1.007314 -7.304999 -4.853049 -12.356366 6.188526 29.145442 -1.635510 2.428500 -1.782810 -12.555107 18.202190 -2.644921 -62.220030 6.228218 -7.317526 -15.531668 -22.849992 1.377554 -3.866749 2.664151 0.388680 0.121370 -0.200910 0.040000 9.010075 -9.539310 1.240109 68.872538 1.812873 -4.199629 33.167484 27.492551 6.085819 2.454958 -1.461266 -0.332310 0.116010 0.072290 -0.164770 
0.414710 16.219850 -1.089460 -2.298524 34.509843 10.138597 -15.025689 12.071123 3.734219 8.774443 -3.592772 -30.264243 -8.622252 4.661142 8.311729 -0.527528 3.144369 3.504455 0.057490 -0.340420 0.207510 18.373385 -11.533893 2.442808 -7.201274 1.171721 -12.504266 2.780443 -4.125116 11.749575 0.029517 -3.209819 3.338345 -0.130620 0.281130 0.100160 -4.735022 0.719436 -7.416051 11.099631 3.422846 6.066353 -7.483287 3.632265 -6.317896 2.160043 -6.813366 -4.855765 -11.209664 7.089238 30.563770 -1.652940 3.648740 -2.320150 -13.759964 17.094922 -3.075810 -61.813751 4.620758 -6.804839 -11.657770 -22.005349 0.625229 -3.868546 2.649516 0.407950 0.105740 -0.163230 0.044060 7.746869 -8.818970 1.736511 71.138183 3.484203 -2.568001 36.371675 28.235597 7.162922 2.429942 -1.536302 -0.312360 0.102070 0.044660 -0.178720 
0.403310 16.215190 -1.085260 -2.458999 33.952675 9.769425 -14.979437 12.004408 3.704636 9.112711 -3.489796 -30.463703 -8.555175 4.883759 9.469130 -0.543376 3.212169 3.456130 0.107230 -0.277350 0.253520 18.417570 -11.640504 2.456585 -7.107785 1.211996 -12.574696 2.648376 -4.164811 12.190658 0.003011 -3.242701 3.308349 -0.091130 0.258340 0.120200 -4.878652 1.055591 -7.406477 12.033589 3.563853 5.890723 -9.341648 3.723709 -5.516249 3.283803 -6.127305 -4.846199 -9.592889 7.800297 31.426619 -2.021210 5.000000 -2.853160 -15.023570 15.455517 -3.266017 -61.149238 3.024724 -6.227186 -8.531896 -20.971688 0.033809 -3.888568 2.643921 0.413190 0.110280 -0.135310 0.045760 6.705742 -7.665373 2.133272 73.075231 5.667022 -0.756893 38.705508 28.711101 7.939982 2.395968 -1.609109 -0.297370 0.095000 0.023720 -0.191260 
